#define bottle_width 32
#define bottle_height 32
static unsigned char bottle_bits[] = {
   0x00, 0x00, 0x00, 0x00, 0x00, 0x00, 0x00, 0x1c, 0x00, 0x00, 0x00, 0x36,
   0x00, 0x00, 0x38, 0x67, 0x00, 0x00, 0xfc, 0x4f, 0x00, 0x00, 0x03, 0x78,
   0x00, 0x00, 0x01, 0x30, 0x00, 0x80, 0x00, 0x18, 0x00, 0xe0, 0x00, 0x08,
   0x00, 0xb0, 0x00, 0x08, 0x00, 0x10, 0x00, 0x18, 0x00, 0x18, 0x00, 0x08,
   0x00, 0x14, 0x00, 0x18, 0x00, 0x01, 0x10, 0x08, 0x00, 0x01, 0x30, 0x0c,
   0xc0, 0x00, 0x40, 0x06, 0x40, 0x00, 0x80, 0x03, 0x20, 0x00, 0x82, 0x00,
   0x10, 0x00, 0xcc, 0x00, 0x0c, 0x60, 0x38, 0x00, 0x04, 0x40, 0x10, 0x00,
   0x01, 0xc0, 0x18, 0x00, 0x03, 0x80, 0x0b, 0x00, 0x02, 0x00, 0x07, 0x00,
   0x02, 0x00, 0x03, 0x00, 0x04, 0x80, 0x01, 0x00, 0x0c, 0xc0, 0x00, 0x00,
   0x10, 0x20, 0x00, 0x00, 0x20, 0x30, 0x00, 0x00, 0x60, 0x10, 0x00, 0x00,
   0x80, 0x07, 0x00, 0x00, 0x00, 0x03, 0x00, 0x00 };
